<?xml version="1.0" encoding="utf-8"?>
<!-- Generator: Adobe Illustrator 23.0.1, SVG Export Plug-In . SVG Version: 6.00 Build 0)  -->
<svg version="1.1" xmlns="http://www.w3.org/2000/svg" xmlns:xlink="http://www.w3.org/1999/xlink" x="0px" y="0px"
	 viewBox="0 0 594 517" style="enable-background:new 0 0 594 517;" xml:space="preserve">
<style type="text/css">
	.st0{fill:#FFFFFF;}
	.st1{fill:#E80728;}
</style>
<g id="Bg">
	<rect x="-264" y="-305" class="st0" width="1122" height="1122"/>
</g>
<g id="Object">
	<g>
		<path class="st1" d="M594,155.62C594,69.91,524.27,0.17,438.58,0.17c-62.89,0-117.14,37.55-141.59,91.38
			C272.56,37.72,218.3,0.17,155.44,0.17C69.71,0.17,0,69.91,0,155.62c0,18.08,3.1,35.42,8.82,51.58c6.5,18.4,16.35,35.2,28.84,49.69
			c5.33,6.2,11.11,11.96,17.36,17.25l237.08,235.49c1.46,1.46,3.36,2.19,5.28,2.19c1.94,0,3.85-0.73,5.32-2.19l245.88-244.29
			l-0.02-0.03c15.94-15.97,28.43-35.36,36.26-56.99C590.75,191.86,594,174.11,594,155.62z"/>
	</g>
</g>
</svg>
